<svg width="3819" height="742" viewBox="0 0 3819 742" fill="none" xmlns="http://www.w3.org/2000/svg">
<rect width="3819" height="742" fill="white"/>
<path d="M1063.19 96.0849L819.545 148.023L782.579 76.4406L1026.43 24L1063.19 96.0849Z" fill="#C05507"/>
<path d="M877.411 604.7H663.295L782.579 76.4406L1026.23 24L877.411 604.7Z" fill="url(#paint0_linear_1_58)"/>
<path d="M877.742 604.7H641.033L469.5 209.217L691.794 161.719L877.742 604.7Z" fill="url(#paint1_linear_1_58)"/>
<path d="M560.781 718H348.771L451.121 213.155L691.671 161.719L560.781 718Z" fill="url(#paint2_linear_1_58)"/>
<path d="M560.781 718H330.598L53.9486 128.839L286.527 84.1475L560.781 718Z" fill="url(#paint3_linear_1_58)"/>
<path d="M249.561 156.232L16.9823 200.924L53.9486 128.839L286.527 84.1475L249.561 156.232Z" fill="#47B6E6"/>
<path d="M1136.56 226.555H1223.27V412.538L1298.32 226.555H1369.29V341.955C1369.29 348.564 1368.27 366.274 1367.56 382.952L1366.19 414.603L1412.11 325.278C1426.16 297.809 1431.31 285.675 1431.31 276.949C1431.31 266.158 1425.15 261.666 1409.01 260.943L1389.81 260.272L1402.49 226.555H1514.25C1465.93 320.063 1413.49 409.027 1375.1 476.821H1292.82V339.528L1239 476.821H1151.58L1136.51 226.555H1136.56Z" fill="white"/>
<path d="M1551.67 226.555H1770.35L1761.09 265.125H1627.74L1613.33 328.737H1740.82L1732.57 364.88H1697.29C1617.4 364.88 1603.35 363.486 1588.28 437.89H1726.77L1718.22 476.821H1492.66L1551.62 226.555H1551.67Z" fill="white"/>
<path d="M1801.21 414.603C1820.05 414.603 1831.04 425.704 1831.04 443.827C1831.04 465.049 1814.95 482.759 1795.05 482.759C1778.24 482.759 1765.92 469.541 1765.92 452.863C1765.92 430.609 1780.64 414.603 1801.21 414.603Z" fill="white"/>
<path d="M1927.68 226.555H2086.74C2131.65 226.555 2167.65 240.806 2167.65 278.705C2167.65 307.568 2144.68 344.382 2068.26 358.994V360.388C2131.34 365.965 2145.4 392.039 2145.4 417.391C2145.4 475.066 2063.47 522 1962.36 522C1954.46 522 1951.71 522 1944.53 520.606L1951.05 492.104L1956.55 491.433C2035.72 481.365 2054.92 440.007 2054.92 416.72C2054.92 388.89 2033.69 374.639 1991.48 373.968L1998.66 343.401L2018.87 341.336C2054.16 337.876 2081.96 317.688 2081.96 294.401C2081.96 271.114 2061.03 261.046 2019.23 261.046C2015.46 261.046 2012.71 261.046 2005.53 261.407L1954.11 476.924H1868.06L1927.68 226.658V226.555Z" fill="white"/>
<path d="M2367.44 384.708C2364.33 389.251 2364.69 391.988 2360.92 395.137C2331.44 442.072 2297.53 482.397 2249.52 482.397C2209.75 482.397 2185.77 456.684 2185.77 414.603C2185.77 396.17 2191.93 363.176 2200.84 330.854L2229.61 226.555H2315.96L2278.95 362.454C2275.54 374.639 2273.81 385.379 2273.81 391.988C2273.81 404.173 2280.68 412.176 2291.27 412.176C2321.11 412.176 2369.07 350.63 2403.03 226.555H2489.08L2429.45 476.821H2341.73L2367.44 384.708Z" fill="white"/>
<path d="M2535.05 280.77C2535.71 277.62 2536.07 274.884 2536.07 272.096C2536.07 258.877 2530.27 255.779 2503.48 255.779H2498.7L2507.61 226.555H2636.48L2574.77 476.821H2487.7L2535 280.77H2535.05Z" fill="white"/>
<path d="M2695.13 226.555H2781.18L2743.81 382.642C2742.79 386.824 2737.65 408.717 2737.65 414.293C2737.65 426.789 2747.57 435.824 2762.34 436.547L2781.53 437.58H2845.28L2835 476.873H2635.86L2695.18 226.607L2695.13 226.555Z" fill="white"/>
<path d="M2911.73 226.555H2998.08L2946.3 439.284C3018.95 433.707 3072.11 384.707 3072.11 323.522C3072.11 285.623 3056.68 263.731 3004.6 260.943L3013.15 225.471H3050.16C3128.68 225.471 3164.32 250.513 3164.32 311.698C3164.32 387.805 3087.54 476.821 2929.19 476.821H2852.41L2911.73 226.555Z" fill="white"/>
<path d="M3211.31 414.603C3230.15 414.603 3241.15 425.704 3241.15 443.827C3241.15 465.049 3225.06 482.759 3205.15 482.759C3188.35 482.759 3176.03 469.541 3176.03 452.863C3176.03 430.609 3190.74 414.603 3211.31 414.603Z" fill="white"/>
<path d="M3330.61 280.77C3331.27 277.62 3331.63 274.884 3331.63 272.096C3331.63 258.877 3325.82 255.779 3299.04 255.779H3294.25L3303.16 226.555H3432.03L3370.32 476.821H3283.26L3330.56 280.77H3330.61Z" fill="white"/>
<path d="M3532.84 264.092H3456.72L3465.28 226.555H3697.66L3687.73 264.092C3683.25 264.092 3681.21 263.731 3678.82 263.731C3634.27 263.731 3619.2 263.369 3605.8 320.373L3568.79 476.769H3482.74L3532.79 264.041L3532.84 264.092Z" fill="white"/>
<path d="M1133.05 221.084H1219.76V407.067L1294.81 221.084H1365.79V336.484C1365.79 343.093 1364.77 360.804 1364.05 377.481L1362.68 409.132L1408.61 319.807C1422.66 292.338 1427.8 280.204 1427.8 271.478C1427.8 260.687 1421.64 256.195 1405.5 255.472L1386.3 254.801L1398.98 221.084H1510.74C1462.42 314.592 1409.98 403.556 1371.59 471.35H1289.31V334.058L1235.49 471.35H1148.07L1133 221.084H1133.05Z" fill="white"/>
<path d="M1548.16 221.084H1766.85L1757.58 259.654H1624.23L1609.82 323.266H1737.32L1729.07 359.41H1693.78C1613.9 359.41 1599.84 358.015 1584.77 432.419H1723.26L1714.71 471.35H1489.15L1548.11 221.084H1548.16Z" fill="white"/>
<path d="M1797.7 409.132C1816.54 409.132 1827.54 420.233 1827.54 438.357C1827.54 459.578 1811.45 477.288 1791.54 477.288C1774.74 477.288 1762.42 464.07 1762.42 447.393C1762.42 425.139 1777.13 409.132 1797.7 409.132Z" fill="white"/>
<path d="M1924.18 221.084H2083.24C2128.14 221.084 2164.14 235.335 2164.14 273.234C2164.14 302.097 2141.18 338.911 2064.75 353.523V354.917C2127.84 360.494 2141.89 386.569 2141.89 411.92C2141.89 469.595 2059.97 516.529 1958.85 516.529C1950.96 516.529 1948.21 516.529 1941.03 515.135L1947.55 486.634L1953.04 485.962C2032.22 475.894 2051.41 434.536 2051.41 411.249C2051.41 383.419 2030.18 369.168 1987.97 368.497L1995.15 337.93L2015.37 335.865C2050.65 332.405 2078.45 312.217 2078.45 288.93C2078.45 265.644 2057.52 255.575 2015.72 255.575C2011.95 255.575 2009.2 255.575 2002.03 255.937L1950.6 471.454H1864.55L1924.18 221.188V221.084Z" fill="white"/>
<path d="M2363.93 379.237C2360.83 383.78 2361.18 386.517 2357.42 389.667C2327.94 436.601 2294.03 476.927 2246.01 476.927C2206.25 476.927 2182.27 451.213 2182.27 409.132C2182.27 390.699 2188.43 357.706 2197.34 325.383L2226.1 221.084H2312.46L2275.44 356.983C2272.03 369.168 2270.3 379.908 2270.3 386.517C2270.3 398.702 2277.17 406.706 2287.76 406.706C2317.6 406.706 2365.56 345.159 2399.52 221.084H2485.57L2425.95 471.35H2338.22L2363.93 379.237Z" fill="white"/>
<path d="M2531.55 275.299C2532.21 272.149 2532.56 269.413 2532.56 266.625C2532.56 253.407 2526.76 250.309 2499.98 250.309H2495.19L2504.1 221.084H2632.97L2571.26 471.35H2484.19L2531.5 275.299H2531.55Z" fill="white"/>
<path d="M2691.62 221.084H2777.67L2740.3 377.171C2739.28 381.354 2734.14 403.246 2734.14 408.822C2734.14 421.318 2744.07 430.354 2758.83 431.076L2778.03 432.109H2841.77L2831.49 471.402H2632.36L2691.68 221.136L2691.62 221.084Z" fill="white"/>
<path d="M2908.22 221.084H2994.57L2942.79 433.813C3015.45 428.237 3068.6 379.237 3068.6 318.051C3068.6 280.153 3053.18 258.26 3001.09 255.472L3009.64 220H3046.66C3125.17 220 3160.81 245.042 3160.81 306.227C3160.81 382.335 3084.03 471.35 2925.68 471.35H2848.9L2908.22 221.084Z" fill="white"/>
<path d="M3207.81 409.132C3226.64 409.132 3237.64 420.233 3237.64 438.357C3237.64 459.578 3221.55 477.288 3201.64 477.288C3184.84 477.288 3172.52 464.07 3172.52 447.393C3172.52 425.139 3187.24 409.132 3207.81 409.132Z" fill="white"/>
<path d="M3327.1 275.299C3327.76 272.149 3328.12 269.413 3328.12 266.625C3328.12 253.407 3322.31 250.309 3295.53 250.309H3290.75L3299.66 221.084H3428.52L3366.81 471.35H3279.75L3327.05 275.299H3327.1Z" fill="white"/>
<path d="M3529.34 258.622H3453.22L3461.77 221.084H3694.15L3684.22 258.622C3679.74 258.622 3677.7 258.26 3675.31 258.26C3630.76 258.26 3615.69 257.899 3602.3 314.902L3565.28 471.299H3479.24L3529.29 258.57L3529.34 258.622Z" fill="white"/>
<defs>
<linearGradient id="paint0_linear_1_58" x1="922.533" y1="48.4206" x2="729.44" y2="591.921" gradientUnits="userSpaceOnUse">
<stop stop-color="#F58634"/>
<stop offset="1" stop-color="#BC5000"/>
</linearGradient>
<linearGradient id="paint1_linear_1_58" x1="581.78" y1="192.105" x2="782.824" y2="619.466" gradientUnits="userSpaceOnUse">
<stop stop-color="#FBCE26"/>
<stop offset="1" stop-color="#F58634"/>
</linearGradient>
<linearGradient id="paint2_linear_1_58" x1="576.669" y1="191.253" x2="419.354" y2="718" gradientUnits="userSpaceOnUse">
<stop stop-color="#0C7347"/>
<stop offset="1" stop-color="#17D986"/>
</linearGradient>
<linearGradient id="paint3_linear_1_58" x1="148.456" y1="125.658" x2="456.269" y2="718" gradientUnits="userSpaceOnUse">
<stop stop-color="#0098DA"/>
<stop offset="1" stop-color="#0C7347"/>
</linearGradient>
</defs>
</svg>
